<svg width="98" height="126" viewBox="0 0 98 126" fill="none" xmlns="http://www.w3.org/2000/svg">
<circle cx="49.0018" cy="48.7674" r="48.7674" fill="#F1F1F1"/>
<rect x="29.8704" y="47.7733" width="47.7443" height="66.842" rx="4.77443" transform="rotate(2.5 29.8704 47.7733)" fill="#EEEEEE" stroke="#999999" stroke-width="1.36412"/>
<rect x="1.48475" y="43.7751" width="50.4726" height="69.5703" rx="6.13856" transform="rotate(-7.5 1.48475 43.7751)" fill="#FAFAFA" stroke="#999999" stroke-width="1.36412"/>
<path d="M2.96222 49.7721C2.56887 46.7844 4.67206 44.0434 7.65981 43.6501L45.5285 38.6646C48.5162 38.2712 51.2572 40.3744 51.6505 43.3622L52.9859 53.5056L4.29762 59.9155L2.96222 49.7721Z" fill="#EEEEEE"/>
<rect x="61.5273" y="39.998" width="2.04619" height="6.82062" rx="1.02309" transform="rotate(82.5 61.5273 39.998)" fill="#999999"/>
<rect x="42.8398" y="28.6992" width="2.04619" height="6.82062" rx="1.02309" transform="rotate(-7.5 42.8398 28.6992)" fill="#999999"/>
<rect x="54.8281" y="30.5605" width="2.04619" height="6.82062" rx="1.02309" transform="rotate(37.5 54.8281 30.5605)" fill="#999999"/>
<rect x="9.38672" y="61.9972" width="39.5596" height="2.72825" rx="1.36412" transform="rotate(-7.5 9.38672 61.9972)" fill="#DCDCDC"/>
<rect x="11.168" y="75.5217" width="39.5596" height="2.72825" rx="1.36412" transform="rotate(-7.5 11.168 75.5217)" fill="#DCDCDC"/>
<rect x="12.9492" y="89.0463" width="39.5596" height="2.72825" rx="1.36412" transform="rotate(-7.5 12.9492 89.0463)" fill="#DCDCDC"/>
<rect x="10.0977" y="67.407" width="14.3233" height="2.72825" rx="1.36412" transform="rotate(-7.5 10.0977 67.407)" fill="#EEEEEE"/>
<rect x="11.8828" y="80.9315" width="14.3233" height="2.72825" rx="1.36412" transform="rotate(-7.5 11.8828 80.9315)" fill="#EEEEEE"/>
<rect x="13.6602" y="94.4562" width="14.3233" height="2.72825" rx="1.36412" transform="rotate(-7.5 13.6602 94.4562)" fill="#EEEEEE"/>
</svg>
