<svg width="116" height="91" viewBox="0 0 116 91" fill="none" xmlns="http://www.w3.org/2000/svg">
<path fill-rule="evenodd" clip-rule="evenodd" d="M87.8359 0C104.312 0 115 8.53125 115 21.6836V69.3164C115 82.4688 104.312 91 87.8359 91H28.1641C11.6875 91 1 82.4688 1 69.3164V21.6836C1 8.53125 11.6875 0 28.1641 0H87.8359Z" fill="url(#paint0_linear_51_18)"/>
<path d="M1.47504 45.8792H114.525" stroke="#E95E00" stroke-linecap="square"/>
<path fill-rule="evenodd" clip-rule="evenodd" d="M50.4 75.838C50.4 76.673 49.5478 77.3502 48.4944 77.3502H39.0056C37.9532 77.3502 37.1 76.6775 37.1 75.838V15.162C37.1 14.327 37.9523 13.6501 39.0056 13.6501H48.4944C49.5468 13.6501 50.4 14.3224 50.4 15.162V39.845L64.7982 15.0319C65.241 14.2688 66.4501 13.6501 67.5012 13.6501H76.8442C78.4197 13.6501 79.1731 14.5812 78.5272 15.7289L62.6465 43.9509C62.6392 43.9638 81.2175 74.6261 81.2175 74.6261C82.1293 76.1285 81.1697 77.3502 79.0712 77.3502H69.6377C68.5933 77.3502 67.3629 76.7374 66.9021 75.9821L50.4 48.9154V75.838Z" fill="white"/>
<mask id="mask0_51_18" style="mask-type:alpha" maskUnits="userSpaceOnUse" x="37" y="13" width="45" height="65">
<path fill-rule="evenodd" clip-rule="evenodd" d="M50.4 75.838C50.4 76.673 49.5478 77.3502 48.4944 77.3502H39.0056C37.9532 77.3502 37.1 76.6775 37.1 75.838V15.162C37.1 14.327 37.9523 13.6501 39.0056 13.6501H48.4944C49.5468 13.6501 50.4 14.3224 50.4 15.162V39.845L64.7982 15.0319C65.241 14.2688 66.4501 13.6501 67.5012 13.6501H76.8442C78.4197 13.6501 79.1731 14.5812 78.5272 15.7289L62.6465 43.9509C62.6392 43.9638 81.2175 74.6261 81.2175 74.6261C82.1293 76.1285 81.1697 77.3502 79.0712 77.3502H69.6377C68.5933 77.3502 67.3629 76.7374 66.9021 75.9821L50.4 48.9154V75.838Z" fill="white"/>
</mask>
<g mask="url(#mask0_51_18)">
<path d="M37.575 45.8792H64.175" stroke="#E6E6EB" stroke-linecap="square"/>
</g>
<defs>
<linearGradient id="paint0_linear_51_18" x1="15.5248" y1="0" x2="15.5248" y2="67.8113" gradientUnits="userSpaceOnUse">
<stop stop-color="#F66F00"/>
<stop offset="1" stop-color="#FE8300"/>
</linearGradient>
</defs>
</svg>
